<svg xmlns="http://www.w3.org/2000/svg" viewBox="0 0 40 40" fill="none">
  <circle cx="20" cy="20" r="18" fill="#333"/>
  <path d="M20 10C25.52 10 30 14.48 30 20C30 25.52 25.52 30 20 30C17.24 30 14.76 28.88 13 27.06V30H11V24H17V26H14.22C15.72 27.86 17.72 29 20 29C24.97 29 29 24.97 29 20C29 15.03 24.97 11 20 11C15.03 11 11 15.03 11 20H10C10 14.48 14.48 10 20 10Z" fill="#689F63"/>
  <text x="20" y="23" text-anchor="middle" fill="#689F63" font-family="Arial,sans-serif" font-size="7" font-weight="bold">N</text>
</svg>
